<?xml version="1.0" encoding="UTF-8" standalone="no"?>
<!DOCTYPE svg PUBLIC "-//W3C//DTD SVG 1.1//EN" "http://www.w3.org/Graphics/SVG/1.1/DTD/svg11.dtd">
<svg width="100%" height="100%" viewBox="0 0 20 20" version="1.1" xmlns="http://www.w3.org/2000/svg" xmlns:xlink="http://www.w3.org/1999/xlink" xml:space="preserve" xmlns:serif="http://www.serif.com/" style="fill-rule:evenodd;clip-rule:evenodd;stroke-linejoin:round;stroke-miterlimit:2;">
    <g transform="matrix(1,0,0,1,-314,-136)">
        <g transform="matrix(1.1181,0,0,-1.63448,-1926.06,2002.23)">
            <g id="General_ListMoveDown_Normal">
                <g id="ListMove">
                    <g transform="matrix(1.1925,0,0,0.87402,908.743,583.286)">
                        <rect x="918" y="625" width="15" height="14" style="fill:none;"/>
                    </g>
                    <g transform="matrix(0.894377,0,0,0.655515,1185.11,721.075)">
                        <rect x="918" y="625" width="15" height="14" style="fill:rgb(189,189,189);fill-opacity:0;"/>
                    </g>
                    <g transform="matrix(3.57751,2.99703e-16,2.19059e-17,0.244726,-1283.37,977.941)">
                        <rect x="922" y="632" width="1" height="5" style="fill:rgb(189,189,189);fill-opacity:0.5;"/>
                        <path d="M923,629.5C923.138,629.5 923.25,630.619 923.25,632L923.25,637C923.25,638.381 923.138,639.5 923,639.5L922,639.5C921.862,639.5 921.75,638.381 921.75,637L921.75,632C921.75,630.619 921.862,629.5 922,629.5L923,629.5ZM923,632L922,632L922,637L923,637L923,632Z" style="fill:rgb(58,58,58);fill-opacity:0.5;"/>
                    </g>
                    <g transform="matrix(3.57751,2.99703e-16,2.19059e-17,0.244726,-1283.37,980.388)">
                        <rect x="922" y="632" width="1" height="5" style="fill:rgb(189,189,189);"/>
                        <path d="M923,629.5C923.138,629.5 923.25,630.619 923.25,632L923.25,637C923.25,638.381 923.138,639.5 923,639.5L922,639.5C921.862,639.5 921.75,638.381 921.75,637L921.75,632C921.75,630.619 921.862,629.5 922,629.5L923,629.5ZM923,632L922,632L922,637L923,637L923,632Z" style="fill:rgb(58,58,58);"/>
                    </g>
                    <g transform="matrix(3.57751,2.99703e-16,2.19059e-17,0.244726,-1283.37,982.835)">
                        <rect x="922" y="632" width="1" height="5" style="fill:rgb(189,189,189);fill-opacity:0.5;"/>
                        <path d="M923,629.5C923.138,629.5 923.25,630.619 923.25,632L923.25,637C923.25,638.381 923.138,639.5 923,639.5L922,639.5C921.862,639.5 921.75,638.381 921.75,637L921.75,632C921.75,630.619 921.862,629.5 922,629.5L923,629.5ZM923,632L922,632L922,637L923,637L923,632Z" style="fill:rgb(58,58,58);fill-opacity:0.5;"/>
                    </g>
                    <g transform="matrix(0.894377,0,0,0.611814,1185.11,749)">
                        <rect x="922" y="632" width="1" height="5" style="fill:rgb(189,189,189);"/>
                        <path d="M923,631C923.552,631 924,631.448 924,632L924,637C924,637.552 923.552,638 923,638L922,638C921.448,638 921,637.552 921,637L921,632C921,631.448 921.448,631 922,631L923,631ZM923,632L922,632L922,637L923,637L923,632Z" style="fill:rgb(58,58,58);"/>
                    </g>
                    <g transform="matrix(0.894377,0,0,0.611814,1185.11,749)">
                        <path d="M922.5,627L926,632L919,632L922.5,627Z" style="fill:rgb(189,189,189);"/>
                        <path d="M921.681,626.427C921.868,626.159 922.174,626 922.5,626C922.826,626 923.132,626.159 923.319,626.427L926.819,631.427C927.033,631.732 927.059,632.131 926.887,632.462C926.715,632.793 926.373,633 926,633L919,633C918.627,633 918.285,632.793 918.113,632.462C917.941,632.131 917.967,631.732 918.181,631.427L921.681,626.427ZM922.5,627L926,632L919,632L922.5,627Z" style="fill:rgb(58,58,58);"/>
                    </g>
                    <g transform="matrix(0.894377,0,0,0.489451,1185.11,825.722)">
                        <rect x="922" y="632" width="1" height="5" style="fill:rgb(189,189,189);"/>
                    </g>
                </g>
            </g>
        </g>
    </g>
</svg>
