<?xml version="1.0" encoding="UTF-8" standalone="no"?>
<!DOCTYPE svg PUBLIC "-//W3C//DTD SVG 1.1//EN" "http://www.w3.org/Graphics/SVG/1.1/DTD/svg11.dtd">
<svg width="100%" height="100%" viewBox="0 0 30 16" version="1.1" xmlns="http://www.w3.org/2000/svg" xmlns:xlink="http://www.w3.org/1999/xlink" xml:space="preserve" xmlns:serif="http://www.serif.com/" style="fill-rule:evenodd;clip-rule:evenodd;stroke-linejoin:round;stroke-miterlimit:2;">
    <g transform="matrix(1,0,0,1,-302,-160)">
        <g id="General_GetFromWwise_Normal" transform="matrix(1,0,0,1,-713,-207)">
            <g id="Icon-Base" serif:id="Icon Base" transform="matrix(2,0,0,1,935,343)">
                <path d="M55,27.1C55,25.941 54.53,25 53.95,25L41.05,25C40.47,25 40,25.941 40,27.1L40,37.9C40,39.059 40.47,40 41.05,40L53.95,40C54.53,40 55,39.059 55,37.9L55,27.1Z" style="fill-opacity:0;"/>
            </g>
            <g id="Wwise-Icon" serif:id="Wwise Icon" transform="matrix(1,0,0,1,848,343)">
                <g id="Icon-Base1" serif:id="Icon Base" transform="matrix(1,0,0,1,140,-5.32907e-14)">
                    <path d="M55,27.1C55,25.941 54.059,25 52.9,25L42.1,25C40.941,25 40,25.941 40,27.1L40,37.9C40,39.059 40.941,40 42.1,40L52.9,40C54.059,40 55,39.059 55,37.9L55,27.1Z" style="fill-opacity:0;"/>
                </g>
                <g transform="matrix(1.1835,0,0,1.1835,-152.159,-479.382)">
                    <path d="M287.37,434.481C287.372,434.881 287.553,435.24 287.84,435.465C288.126,435.715 288.31,436.096 288.31,436.518C288.31,437.278 287.725,437.89 287.004,437.89L286.981,437.89C286.259,437.89 285.673,437.278 285.673,436.518C285.673,436.096 285.859,435.715 286.145,435.465C286.431,435.24 286.617,434.881 286.615,434.481L286.615,434.384C286.612,433.98 286.431,433.395 286.145,433.173C285.859,432.921 285.673,432.541 285.673,432.117C285.673,431.359 286.259,430.745 286.981,430.745L287.004,430.745C287.725,430.745 288.31,431.359 288.31,432.117C288.31,432.541 288.126,432.921 287.84,433.173C287.553,433.395 287.367,433.98 287.37,434.384L287.37,434.481ZM290.197,432.221C290.2,432.622 290.385,432.981 290.681,433.206C290.975,433.456 291.164,433.836 291.164,434.259C291.164,435.019 290.563,435.631 289.821,435.631L289.798,435.631C289.055,435.631 288.452,435.019 288.452,434.259C288.452,433.836 288.643,433.456 288.937,433.206C289.231,432.981 289.423,432.622 289.421,432.221L289.421,432.125C289.418,431.721 289.231,431.362 288.937,431.139C288.643,430.887 288.452,430.507 288.452,430.084C288.452,429.325 289.055,428.712 289.798,428.712L289.821,428.712C290.563,428.712 291.164,429.325 291.164,430.084C291.164,430.507 290.975,430.887 290.681,431.139C290.385,431.362 290.194,431.721 290.197,432.125L290.197,432.221ZM284.596,432.221C284.598,432.622 284.786,432.981 285.084,433.206C285.382,433.456 285.573,433.836 285.573,434.259C285.573,435.019 284.965,435.631 284.215,435.631L284.192,435.631C283.441,435.631 282.832,435.019 282.832,434.259C282.832,433.836 283.025,433.456 283.322,433.206C283.619,432.981 283.813,432.622 283.811,432.221L283.811,432.125C283.808,431.721 283.619,431.362 283.322,431.139C283.025,430.887 282.832,430.507 282.832,430.084C282.832,429.325 283.441,428.712 284.192,428.712L284.215,428.712C284.965,428.712 285.573,429.325 285.573,430.084C285.573,430.507 285.382,430.887 285.084,431.139C284.786,431.362 284.593,431.721 284.596,432.125L284.596,432.221ZM293.331,432.026C293.331,431.453 292.871,430.988 292.304,430.988C291.736,430.988 291.276,431.453 291.276,432.026C291.276,432.599 291.736,433.064 292.304,433.064C292.871,433.064 293.331,432.599 293.331,432.026ZM282.724,432.026C282.724,431.453 282.264,430.988 281.696,430.988C281.129,430.988 280.669,431.453 280.669,432.026C280.669,432.599 281.129,433.064 281.696,433.064C282.264,433.064 282.724,432.599 282.724,432.026ZM288.346,428.384C288.346,427.62 287.732,427 286.975,427C286.219,427 285.605,427.62 285.605,428.384C285.605,429.147 286.219,429.767 286.975,429.767C287.732,429.767 288.346,429.147 288.346,428.384Z" style="fill:rgb(189,189,189);fill-rule:nonzero;"/>
                    <path d="M289.741,436.475L289.821,436.476C291.024,436.476 292.009,435.491 292.009,434.259C292.009,434.13 291.998,434.003 291.977,433.88C292.083,433.899 292.192,433.909 292.304,433.909C293.335,433.909 294.176,433.068 294.176,432.026C294.176,430.985 293.335,430.143 292.304,430.143C292.203,430.143 292.104,430.151 292.007,430.167C292.009,430.139 292.009,430.112 292.009,430.084C292.009,428.853 291.024,427.867 289.821,427.867L289.798,427.867C289.573,427.867 289.356,427.901 289.152,427.965C288.957,426.934 288.054,426.155 286.975,426.155C285.903,426.155 285.005,426.924 284.803,427.947C284.616,427.895 284.418,427.867 284.215,427.867L284.214,427.867C284.206,427.867 284.199,427.868 284.192,427.871L284.192,427.867C282.976,427.867 281.987,428.856 281.987,430.084C281.987,430.112 281.988,430.139 281.989,430.166C281.894,430.151 281.796,430.143 281.696,430.143C280.665,430.143 279.824,430.985 279.824,432.026C279.824,433.068 280.665,433.909 281.696,433.909C281.807,433.909 281.915,433.899 282.02,433.88C281.998,434.003 281.987,434.13 281.987,434.259C281.987,435.469 282.946,436.445 284.135,436.475L284.215,436.476C284.429,436.476 284.636,436.445 284.832,436.387C284.83,436.431 284.828,436.474 284.828,436.518C284.828,437.737 285.773,438.704 286.926,438.734L287.059,438.734C288.21,438.704 289.155,437.737 289.155,436.518C289.155,436.471 289.154,436.424 289.15,436.377C289.338,436.436 289.536,436.47 289.741,436.475ZM287.637,435.261C287.47,435.048 287.372,434.776 287.37,434.481L287.37,434.384C287.367,433.98 287.553,433.395 287.84,433.173C288.126,432.921 288.31,432.541 288.31,432.117C288.31,431.359 287.725,430.745 287.004,430.745L286.981,430.745C286.259,430.745 285.673,431.359 285.673,432.117C285.673,432.541 285.859,432.921 286.145,433.173C286.431,433.395 286.612,433.98 286.615,434.384L286.615,434.481C286.617,434.776 286.516,435.048 286.348,435.261C286.304,435.245 286.257,435.225 286.21,435.201L286.202,435.218C286.244,435.242 286.289,435.262 286.335,435.278C286.278,435.347 286.215,435.41 286.145,435.465C285.859,435.715 285.673,436.096 285.673,436.518C285.673,437.278 286.259,437.89 286.981,437.89L287.004,437.89C287.725,437.89 288.31,437.278 288.31,436.518C288.31,436.096 288.126,435.715 287.84,435.465C287.77,435.41 287.706,435.347 287.65,435.278C287.707,435.258 287.762,435.232 287.813,435.2L287.806,435.184C287.749,435.216 287.691,435.242 287.637,435.261ZM290.47,432.999C290.299,432.787 290.199,432.515 290.197,432.221L290.197,432.125C290.194,431.721 290.385,431.362 290.681,431.139C290.975,430.887 291.164,430.507 291.164,430.084C291.164,429.325 290.563,428.712 289.821,428.712L289.798,428.712C289.055,428.712 288.452,429.325 288.452,430.084C288.452,430.507 288.643,430.887 288.937,431.139C289.231,431.362 289.418,431.721 289.421,432.125L289.421,432.221C289.423,432.515 289.32,432.787 289.148,432.999C289.102,432.982 289.053,432.961 289.003,432.935L288.997,432.952C289.041,432.977 289.087,432.999 289.135,433.016C289.076,433.086 289.01,433.15 288.937,433.206C288.643,433.456 288.452,433.836 288.452,434.259C288.452,435.019 289.055,435.631 289.798,435.631L289.821,435.631C290.563,435.631 291.164,435.019 291.164,434.259C291.164,433.836 290.975,433.456 290.681,433.206C290.608,433.15 290.541,433.086 290.483,433.016C290.545,432.994 290.604,432.964 290.66,432.928L290.652,432.913C290.59,432.95 290.528,432.978 290.47,432.999ZM284.87,432.998C284.699,432.786 284.598,432.515 284.596,432.221L284.596,432.125C284.593,431.721 284.786,431.362 285.084,431.139C285.382,430.887 285.573,430.507 285.573,430.084C285.573,429.325 284.965,428.712 284.215,428.712L284.192,428.712C283.441,428.712 282.832,429.325 282.832,430.084C282.832,430.507 283.025,430.887 283.322,431.139C283.619,431.362 283.808,431.721 283.811,432.125L283.811,432.221C283.813,432.515 283.709,432.786 283.536,432.998C283.477,432.977 283.413,432.948 283.35,432.91L283.342,432.924C283.398,432.961 283.459,432.992 283.523,433.015C283.463,433.086 283.396,433.15 283.322,433.206C283.025,433.456 282.832,433.836 282.832,434.259C282.832,435.019 283.441,435.631 284.192,435.631L284.215,435.631C284.965,435.631 285.573,435.019 285.573,434.259C285.573,433.836 285.382,433.456 285.084,433.206C285.01,433.15 284.943,433.086 284.884,433.015C284.921,433.002 284.958,432.985 284.993,432.967L284.986,432.949C284.946,432.968 284.908,432.985 284.87,432.998ZM293.331,432.026C293.331,431.453 292.871,430.988 292.304,430.988C291.736,430.988 291.276,431.453 291.276,432.026C291.276,432.599 291.736,433.064 292.304,433.064C292.871,433.064 293.331,432.599 293.331,432.026ZM282.724,432.026C282.724,431.453 282.264,430.988 281.696,430.988C281.129,430.988 280.669,431.453 280.669,432.026C280.669,432.599 281.129,433.064 281.696,433.064C282.264,433.064 282.724,432.599 282.724,432.026ZM288.346,428.384C288.346,427.62 287.732,427 286.975,427C286.219,427 285.605,427.62 285.605,428.384C285.605,429.147 286.219,429.767 286.975,429.767C287.732,429.767 288.346,429.147 288.346,428.384Z" style="fill:rgb(58,58,58);"/>
                </g>
            </g>
            <g id="Arrow" transform="matrix(1,0,0,1,3,-0.992581)">
                <path d="M1018,375L1022,375L1022,377L1018,377L1018,380.993L1014,376L1018,370.993L1018,375Z" style="fill:rgb(189,189,189);"/>
                <path d="M1019,374L1019,370.993C1019,370.568 1018.73,370.189 1018.33,370.049C1017.93,369.908 1017.48,370.037 1017.22,370.368L1013.22,375.376C1012.93,375.741 1012.93,376.26 1013.22,376.625L1017.22,381.618C1017.49,381.949 1017.93,382.077 1018.33,381.936C1018.73,381.795 1019,381.417 1019,380.993L1019,378C1019,378 1022,378 1022,378C1022.55,378 1023,377.552 1023,377L1023,375C1023,374.448 1022.55,374 1022,374L1019,374ZM1018,375L1022,375L1022,377L1018,377L1018,380.993L1014,376L1018,370.993L1018,375Z" style="fill:rgb(58,58,58);"/>
            </g>
        </g>
    </g>
</svg>
