<?xml version="1.0" encoding="UTF-8" standalone="no"?>
<!DOCTYPE svg PUBLIC "-//W3C//DTD SVG 1.1//EN" "http://www.w3.org/Graphics/SVG/1.1/DTD/svg11.dtd">
<svg width="100%" height="100%" viewBox="0 0 20 20" version="1.1" xmlns="http://www.w3.org/2000/svg" xmlns:xlink="http://www.w3.org/1999/xlink" xml:space="preserve" xmlns:serif="http://www.serif.com/" style="fill-rule:evenodd;clip-rule:evenodd;stroke-linejoin:round;stroke-miterlimit:2;">
    <g transform="matrix(1,0,0,1,-150,-28)">
        <g id="General_FolderWithTriangle_Normal" transform="matrix(1,0,0,1,102,25)">
            <g id="Transparent-BG" serif:id="Transparent BG" transform="matrix(1,0,0,1,48,3)">
                <rect x="0" y="0" width="20" height="20" style="fill:white;fill-opacity:0;"/>
            </g>
            <g transform="matrix(1,0,0,1,-396,-131)">
                <path d="M453,140L459,140L459,148L448,148L448,142L452,142L453,141L453,140ZM452,140L452,141L448,141L448,139L452,139L452,140Z" style="fill:rgb(189,189,189);"/>
                <path d="M452.065,138.002L452.131,138.009L452.195,138.019L452.259,138.034L452.321,138.053L452.383,138.076L452.442,138.103L452.5,138.134L452.556,138.169L452.609,138.207L452.659,138.248L452.707,138.293L452.752,138.341L452.793,138.391L452.831,138.444L452.866,138.5L452.897,138.558L452.924,138.617L452.947,138.679L452.966,138.741L452.981,138.805L452.991,138.869L452.998,138.935L453,139L459,139L459.065,139.002L459.131,139.009L459.195,139.019L459.259,139.034L459.321,139.053L459.383,139.076L459.442,139.103L459.5,139.134L459.556,139.169L459.609,139.207L459.659,139.248L459.707,139.293L459.752,139.341L459.793,139.391L459.831,139.444L459.866,139.5L459.897,139.558L459.924,139.617L459.947,139.679L459.966,139.741L459.981,139.805L459.991,139.869L459.998,139.935L460,140L460,148L459.998,148.065L459.991,148.131L459.981,148.195L459.966,148.259L459.947,148.321L459.924,148.383L459.897,148.442L459.866,148.5L459.831,148.556L459.793,148.609L459.752,148.659L459.707,148.707L459.659,148.752L459.609,148.793L459.556,148.831L459.5,148.866L459.442,148.897L459.383,148.924L459.321,148.947L459.259,148.966L459.195,148.981L459.131,148.991L459.065,148.998L459,149L448,149L447.935,148.998L447.869,148.991L447.805,148.981L447.741,148.966L447.679,148.947L447.617,148.924L447.558,148.897L447.5,148.866L447.444,148.831L447.391,148.793L447.341,148.752L447.293,148.707L447.248,148.659L447.207,148.609L447.169,148.556L447.134,148.5L447.103,148.442L447.076,148.383L447.053,148.321L447.034,148.259L447.019,148.195L447.009,148.131L447.002,148.065L447,148L447,142L447.002,141.935L447.009,141.869L447.019,141.805L447.034,141.741L447.053,141.679L447.076,141.617L447.103,141.558L447.134,141.5C447.134,141.5 447.103,141.442 447.103,141.442L447.076,141.383L447.053,141.321L447.034,141.259L447.019,141.195L447.009,141.131L447.002,141.065L447,141L447,139L447.002,138.935L447.009,138.869L447.019,138.805L447.034,138.741L447.053,138.679L447.076,138.617L447.103,138.558L447.134,138.5L447.169,138.444L447.207,138.391L447.248,138.341L447.293,138.293L447.341,138.248L447.391,138.207L447.444,138.169L447.5,138.134L447.558,138.103L447.617,138.076L447.679,138.053L447.741,138.034L447.805,138.019L447.869,138.009L447.935,138.002L448,138L452,138L452.065,138.002ZM453,140L453,141L452,142L448,142L448,148L459,148L459,140L453,140ZM448,139L448,141L452,141L452,140L452,139L448,139Z" style="fill:rgb(58,58,58);"/>
            </g>
            <g transform="matrix(1,0,0,1,-72.5132,-174.075)">
                <circle cx="137" cy="194" r="2" style="fill:rgb(58,58,58);"/>
            </g>
            <g transform="matrix(1.73001,2.81678e-17,-2.81678e-17,-1.5,-255.548,50.5)">
                <path d="M186.021,21.666L186.042,21.665L186.064,21.663L186.085,21.659L186.106,21.655L186.126,21.651L186.147,21.645L186.167,21.638L186.188,21.631L186.208,21.622L186.227,21.613L186.247,21.603L186.266,21.592L186.284,21.58L186.303,21.568L186.321,21.555L186.338,21.541L186.355,21.526L186.371,21.511L186.387,21.495L186.403,21.478L186.418,21.461L186.432,21.443L186.446,21.424L186.459,21.405L186.472,21.385L186.484,21.365L186.495,21.344L186.506,21.323L186.516,21.301L186.525,21.279L186.533,21.257L186.541,21.234L186.548,21.211L186.555,21.187L186.56,21.164L186.565,21.14L186.569,21.116L186.573,21.092L186.575,21.067L186.577,21.043L186.578,21.019L186.578,20.994L186.577,20.97L186.576,20.945L186.574,20.921L186.571,20.897L186.567,20.872L186.563,20.849L186.558,20.825L186.552,20.801L186.545,20.778L186.538,20.755L186.529,20.732L186.521,20.71L186.511,20.688L186.501,20.667L185.501,18.667L185.49,18.646L185.478,18.625L185.466,18.605L185.453,18.586L185.44,18.567L185.425,18.549L185.411,18.531L185.396,18.514L185.38,18.497L185.364,18.482L185.347,18.467L185.33,18.452L185.312,18.439L185.294,18.426L185.275,18.414L185.256,18.402L185.237,18.392L185.218,18.382L185.198,18.374L185.178,18.366L185.157,18.359L185.137,18.352L185.116,18.347L185.095,18.342L185.074,18.339L185.053,18.336L185.032,18.334L185.011,18.333L184.989,18.333L184.968,18.334L184.947,18.336L184.926,18.339L184.905,18.342L184.884,18.347L184.863,18.352L184.843,18.359L184.822,18.366L184.802,18.374L184.782,18.382L184.763,18.392L184.744,18.402L184.725,18.414L184.706,18.426L184.688,18.439L184.67,18.452L184.653,18.467L184.636,18.482L184.62,18.497L184.604,18.514L184.589,18.531L184.575,18.549L184.56,18.567L184.547,18.586L184.534,18.605L184.522,18.625L184.51,18.646L184.499,18.667L183.499,20.667L183.489,20.688L183.479,20.71L183.471,20.732L183.462,20.755L183.455,20.778L183.448,20.801L183.442,20.825L183.437,20.849L183.433,20.872L183.429,20.897L183.426,20.921L183.424,20.945L183.423,20.97L183.422,20.994L183.422,21.019L183.423,21.043L183.425,21.067L183.427,21.092L183.431,21.116L183.435,21.14L183.44,21.164L183.445,21.187L183.452,21.211L183.459,21.234L183.467,21.257L183.475,21.279L183.484,21.301L183.494,21.323L183.505,21.344L183.516,21.365L183.528,21.385L183.541,21.405L183.554,21.424L183.568,21.443L183.582,21.461L183.597,21.478L183.613,21.495L183.629,21.511L183.645,21.526L183.662,21.541L183.679,21.555L183.697,21.568L183.716,21.58L183.734,21.592L183.753,21.603L183.773,21.613L183.792,21.622L183.812,21.631L183.833,21.638L183.853,21.645L183.874,21.651L183.894,21.655L183.915,21.659L183.936,21.663L183.958,21.665L183.979,21.666L184,21.667L186,21.667L186.021,21.666ZM184,21L185,19L186,21L184,21Z" style="fill:rgb(58,58,58);"/>
                <path d="M185,19L186,21L184,21L185,19Z" style="fill:rgb(189,189,189);"/>
            </g>
        </g>
    </g>
</svg>
