<?xml version="1.0" encoding="UTF-8" standalone="no"?>
<!DOCTYPE svg PUBLIC "-//W3C//DTD SVG 1.1//EN" "http://www.w3.org/Graphics/SVG/1.1/DTD/svg11.dtd">
<svg width="100%" height="100%" viewBox="0 0 15 15" version="1.1" xmlns="http://www.w3.org/2000/svg" xmlns:xlink="http://www.w3.org/1999/xlink" xml:space="preserve" xmlns:serif="http://www.serif.com/" style="fill-rule:evenodd;clip-rule:evenodd;stroke-linejoin:round;stroke-miterlimit:1.41421;">
    <g transform="matrix(1,0,0,1,-140,-125)">
        <g transform="matrix(1,0,0,1,140,125)">
            <g id="ObjectIcons_RandomContainer_nor">
                <g id="Icons">
                    <g transform="matrix(1,0,0,1,-40,-25)">
                        <g id="Base-Block" serif:id="Base Block">
                            <path d="M55,27.1C55,25.941 54.059,25 52.9,25L42.1,25C40.941,25 40,25.941 40,27.1L40,37.9C40,39.059 40.941,40 42.1,40L52.9,40C54.059,40 55,39.059 55,37.9L55,27.1Z" style="fill-opacity:0;"/>
                        </g>
                    </g>
                    <path d="M4.2,14L2.8,14C1.807,14 1,13.193 1,12.2L1,10.8C1,10.289 1.214,9.827 1.558,9.5C1.214,9.173 1,8.711 1,8.2L1,6.8C1,6.289 1.214,5.827 1.558,5.5C1.214,5.173 1,4.711 1,4.2L1,2.8C1,1.808 1.804,1.002 2.8,1L4.2,1C4.711,1.001 5.172,1.214 5.5,1.558C5.826,1.215 6.286,1.001 6.8,1L8.2,1C8.711,1.001 9.172,1.214 9.5,1.558C9.826,1.215 10.286,1.001 10.8,1L12.2,1C13.196,1.002 14,1.808 14,2.8L14,4.2C14,4.711 13.786,5.173 13.442,5.5C13.786,5.827 14,6.289 14,6.8L14,8.2C14,8.711 13.786,9.173 13.442,9.5C13.786,9.827 14,10.289 14,10.8L14,12.2C14,13.191 13.197,13.996 12.2,14L10.8,14C10.289,14 9.827,13.786 9.5,13.442C9.175,13.785 8.715,13.998 8.2,14L6.8,14C6.289,14 5.827,13.786 5.5,13.442C5.175,13.785 4.715,13.998 4.2,14ZM13,10L10,10L10,13L13,13L13,10ZM9,10L6,10L6,13L9,13L9,10ZM5,10L2,10L2,13L5,13L5,10ZM13,6L10,6L10,9L13,9L13,6ZM9,6L6,6L6,9L9,9L9,6ZM5,6L2,6L2,9L5,9L5,6ZM5,2L2,2L2,5L5,5L5,2ZM9,2L6,2L6,5L9,5L9,2ZM13,2L10,2L10,5L13,5L13,2Z" style="fill:rgb(34,34,34);"/>
                    <g transform="matrix(1,0,0,1,1.42109e-13,-8)">
                        <rect x="2" y="10" width="3" height="3" style="fill:rgb(216,216,216);"/>
                    </g>
                    <g transform="matrix(1,0,0,1,0,-8)">
                        <rect x="10" y="10" width="3" height="3" style="fill:rgb(216,216,216);"/>
                    </g>
                    <g transform="matrix(1,0,0,1,1.42109e-13,8)">
                        <rect x="10" y="2" width="3" height="3" style="fill:rgb(216,216,216);"/>
                    </g>
                    <rect x="6" y="6" width="3" height="3" style="fill:rgb(216,216,216);"/>
                    <g transform="matrix(1,0,0,1,1.42109e-13,-4)">
                        <rect x="6" y="6" width="3" height="3" style="fill:rgb(145,145,145);"/>
                    </g>
                    <g transform="matrix(1,0,0,1,4,2.27374e-13)">
                        <rect x="6" y="6" width="3" height="3" style="fill:rgb(145,145,145);"/>
                    </g>
                    <g transform="matrix(1,0,0,1,1.42109e-13,4)">
                        <rect x="6" y="6" width="3" height="3" style="fill:rgb(145,145,145);"/>
                    </g>
                    <g transform="matrix(1,0,0,1,-4,4)">
                        <rect x="6" y="6" width="3" height="3" style="fill:rgb(145,145,145);"/>
                    </g>
                    <rect x="2" y="6" width="3" height="3" style="fill:rgb(216,216,216);"/>
                </g>
            </g>
        </g>
    </g>
</svg>
