<?xml version="1.0" encoding="UTF-8" standalone="no"?>
<!DOCTYPE svg PUBLIC "-//W3C//DTD SVG 1.1//EN" "http://www.w3.org/Graphics/SVG/1.1/DTD/svg11.dtd">
<svg width="100%" height="100%" viewBox="0 0 15 15" version="1.1" xmlns="http://www.w3.org/2000/svg" xmlns:xlink="http://www.w3.org/1999/xlink" xml:space="preserve" xmlns:serif="http://www.serif.com/" style="fill-rule:evenodd;clip-rule:evenodd;stroke-linejoin:round;stroke-miterlimit:1.41421;">
    <g transform="matrix(1,0,0,1,-80,-125)">
        <g transform="matrix(1,0,0,1,80,125)">
            <g id="ObjectIcons_SoundVoice_nor">
                <g id="Icons">
                    <g transform="matrix(1,0,0,1,-40,-25)">
                        <g id="Base-Block" serif:id="Base Block">
                            <path d="M55,27.1C55,25.941 54.059,25 52.9,25L42.1,25C40.941,25 40,25.941 40,27.1L40,37.9C40,39.059 40.941,40 42.1,40L52.9,40C54.059,40 55,39.059 55,37.9L55,27.1Z" style="fill-opacity:0;"/>
                        </g>
                    </g>
                    <g transform="matrix(1,0,0,1,-200,-85)">
                        <path d="M207.357,85.005C207.807,85.025 208.632,85.653 208.662,86.434C208.708,87.636 208.162,88.036 208.162,88.036C208.162,88.036 208.298,88.101 208.512,88.385L209.985,90.61C210.275,91.102 210.426,92.985 209.576,93.006L208.259,93.012L208.492,94.008C208.653,94.589 207.528,94.904 207,95L204.609,95C204.608,95.763 205.058,96.001 207,96C207.577,96.092 207.956,96.38 208,97L208,98C208.013,98.782 206.809,99.988 206.008,100L203.942,100C202.719,99.832 200.019,99.184 200.019,98.227L200.019,93.196C199.979,92.123 200.014,87.508 200.014,87.508C199.998,85.97 201.388,85.026 202.662,85.005L207.357,85.005ZM203,86C201.542,86.026 200.986,86.527 201,88C201,88 200.972,92.172 201.004,93.101L201.004,98.101C202.005,98.527 203.007,98.854 204.004,99L206,99C206.445,98.842 206.784,98.615 207.004,98.101L207,97C204.154,97.002 203.52,96.428 203.524,94L207,94C207.431,93.917 207.419,93.791 207.289,93.287L206.644,92.105C206.621,92.037 206.649,92.002 206.728,92L208.88,92C209.172,91.992 209.241,91.34 209.004,90.913L207.644,88.922C207.469,88.676 207.175,88.752 206.984,88.66C206.902,88.62 206.816,88.191 206.892,87.928C206.967,87.664 207.293,87.473 207.325,87.452C207.595,87.273 207.671,86.994 207.655,86.537C207.674,86.161 207.3,85.964 207.163,86L203,86Z" style="fill:rgb(34,34,34);"/>
                    </g>
                    <g transform="matrix(1,0,0,1,-199.996,-83.899)">
                        <path d="M201,97C202.001,97.426 203.003,97.753 204,97.899L205.996,97.899C206.441,97.741 206.78,97.514 207,97L206.996,95.899C204.15,95.901 203.516,95.327 203.52,92.899L206.996,92.899C207.427,92.816 207.415,92.69 207.285,92.186L206.64,91.004C206.617,90.936 206.645,90.901 206.724,90.899L208.876,90.899C209.168,90.891 209.237,90.238 209,89.812L207.64,87.821C207.465,87.575 207.171,87.651 206.98,87.559C206.898,87.519 206.812,87.09 206.888,86.827C206.963,86.563 207.289,86.372 207.321,86.351C207.591,86.172 207.667,85.893 207.651,85.436C207.67,85.059 207.296,84.863 207.159,84.899L204.996,84.899L202.996,84.899C201.538,84.925 200.982,85.426 200.996,86.899C200.996,86.899 200.968,91.071 201,92L201,97Z" style="fill:rgb(200,200,200);"/>
                    </g>
                    <g transform="matrix(1,0,0,1,-199.248,-84.0739)">
                        <path d="M205.234,86.433C205.236,86.271 205.163,86.143 204.941,86.084C203.696,86.17 202.868,86.779 202.042,87.739C201.195,88.723 201.248,90.074 201.248,90.074C201.341,90.215 201.27,90.202 201.452,90.051C201.627,89.58 202.066,88.853 202.779,88.332C203.565,87.757 204.304,87.524 205.027,87.499C205.17,87.52 205.253,87.474 205.246,87.329L205.234,86.433Z" style="fill:rgb(34,34,34);"/>
                    </g>
                    <g transform="matrix(1,0,0,1,-198,-84)">
                        <circle cx="203" cy="89" r="1" style="fill:rgb(34,34,34);"/>
                    </g>
                    <g transform="matrix(1,0,0,1,0.103745,2.84217e-13)">
                        <path d="M12.954,15L10.482,15L9.882,14.115C9.79,13.768 9.779,13.459 9.843,13.186L9.802,13.209C9.2,13.453 8.862,13.291 8.626,12.97L7.966,11.815C7.798,11.359 7.938,11.007 8.333,10.742C8.65,10.53 8.945,10.269 9,10.075C8.971,9.919 8.635,9.628 8.296,9.392C7.999,9.095 8.061,8.696 8.279,8.254L8.917,7.419C9.221,7.035 9.601,6.902 10.073,7.077C10.035,6.791 10.125,6.508 10.319,6.253L11.035,5.523C11.558,4.983 11.932,4.847 12.51,5.181C13.748,5.793 14.482,6.734 14.896,7.815L14.896,12.537C14.465,13.513 13.767,14.352 12.954,15ZM11.983,6C13.42,6.997 14.35,8.516 14.35,10.197C14.35,12.268 13.069,13.616 11.656,14.566L10.909,13.61C12.135,12.801 12.912,11.864 12.912,10.197C12.912,8.806 12.129,7.561 10.923,6.767L11.983,6ZM9.564,7.939C10.504,8.364 11.199,9.141 11.199,10C11.199,10.953 10.345,11.803 9.25,12.187L8.835,11.461C9.527,11.211 10,10.657 10,10C10,9.405 9.611,8.894 9.023,8.617L9.444,8.048L9.564,7.939Z" style="fill:rgb(34,34,34);"/>
                    </g>
                    <g transform="matrix(1.26624,0,0,1.2044,-254.785,-103.017)">
                        <path d="M210.752,90.515C211.887,91.343 212.621,92.605 212.621,94C212.621,95.72 211.529,96.863 210.493,97.64L209.904,96.846C210.963,96.006 211.485,95.384 211.485,94C211.485,92.845 210.867,91.811 209.915,91.152L210.752,90.515Z" style="fill:rgb(216,216,216);"/>
                    </g>
                    <g transform="matrix(1,0,0,1,-199.896,-83.9249)">
                        <path d="M209.564,91.939C210.504,92.364 211.199,93.141 211.199,94C211.199,94.953 210.345,95.803 209.25,96.187L208.835,95.461C209.527,95.211 210,94.657 210,94C210,93.405 209.611,92.894 209.023,92.617L209.444,92.048L209.564,91.939Z" style="fill:rgb(216,216,216);"/>
                    </g>
                </g>
            </g>
        </g>
    </g>
</svg>
