<?xml version="1.0" encoding="UTF-8" standalone="no"?>
<!DOCTYPE svg PUBLIC "-//W3C//DTD SVG 1.1//EN" "http://www.w3.org/Graphics/SVG/1.1/DTD/svg11.dtd">
<svg width="100%" height="100%" viewBox="0 0 15 15" version="1.1" xmlns="http://www.w3.org/2000/svg" xmlns:xlink="http://www.w3.org/1999/xlink" xml:space="preserve" xmlns:serif="http://www.serif.com/" style="fill-rule:evenodd;clip-rule:evenodd;stroke-linejoin:round;stroke-miterlimit:1.41421;">
    <g transform="matrix(1,0,0,1,-200,-125)">
        <g transform="matrix(1,0,0,1,200,125)">
            <g id="ObjectIcons_SwitchContainer_nor">
                <g id="Icons">
                    <g transform="matrix(1,0,0,1,-40,-25)">
                        <g id="Base-Block" serif:id="Base Block">
                            <path d="M55,27.1C55,25.941 54.059,25 52.9,25L42.1,25C40.941,25 40,25.941 40,27.1L40,37.9C40,39.059 40.941,40 42.1,40L52.9,40C54.059,40 55,39.059 55,37.9L55,27.1Z" style="fill-opacity:0;"/>
                        </g>
                    </g>
                    <path d="M1.95,9L1.05,9C0.47,9 0,8.53 0,7.95L0,7.05C0,6.471 0.469,6.001 1.05,6L1.95,6L2,6.003L2,2.35C2,1.606 2.604,1.001 3.35,1L3.65,1C4.396,1.001 5,1.606 5,2.35L5,12.65C5,13.394 4.396,13.999 3.65,14L3.35,14C2.605,14 2,13.395 2,12.65L2,8.997L1.95,9ZM4,2L3,2L3,7L1,7L1,8L3,8L3,13L4,13L4,2Z" style="fill:rgb(34,34,34);"/>
                    <path d="M8.2,14L6.8,14C5.807,14 5,13.193 5,12.2L5,10.8C5,10.289 5.214,9.827 5.558,9.5C5.214,9.173 5,8.711 5,8.2L5,6.8C5,6.289 5.214,5.827 5.558,5.5C5.214,5.173 5,4.711 5,4.2L5,2.8C5,1.807 5.805,1.001 6.8,1L8.2,1C9.195,1.001 10,1.807 10,2.8L10,4.2C10,4.711 9.786,5.173 9.442,5.5C9.786,5.827 10,6.289 10,6.8L10,8.2C10,8.711 9.786,9.173 9.442,9.5C9.6,9.649 9.73,9.827 9.823,10.026C9.896,10.009 9.971,10 10.051,10L10.086,10L10.086,7.02C10.086,6.458 10.542,6.001 11.106,6L11.98,6L12.03,6.003L12.08,6L13.92,6C14.517,6.001 15,6.485 15,7.08L15,7.92C15,8.514 14.519,8.997 13.92,9L13,9L13,11.98C13,12.541 12.546,12.997 11.98,13L11.106,13L11.028,12.996L10.951,13L10.051,13C9.973,13 9.896,12.991 9.823,12.974C9.535,13.58 8.917,13.999 8.2,14ZM9,10L6,10L6,13L9,13L9,10ZM14,7L11,7L11,11L10,11L10,12L12,12L12,8L14,8L14,7ZM9,6L6,6L6,9L9,9L9,6ZM9,2L6,2L6,5L9,5L9,2Z" style="fill:rgb(34,34,34);"/>
                    <g transform="matrix(1,0,0,1,-4,-8)">
                        <rect x="10" y="10" width="3" height="3" style="fill:rgb(200,200,200);"/>
                    </g>
                    <g transform="matrix(1,0,0,1,-4,-4)">
                        <rect x="10" y="10" width="3" height="3" style="fill:rgb(200,200,200);"/>
                    </g>
                    <g transform="matrix(1,0,0,1,-4,0)">
                        <rect x="10" y="10" width="3" height="3" style="fill:rgb(200,200,200);"/>
                    </g>
                    <g transform="matrix(6.12323e-17,-1,1,5.72119e-18,1,7)">
                        <path d="M0,2L0,0L-1,0L-1,2L-6,2L-6,3L5,3L5,2L0,2Z" style="fill:rgb(200,200,200);"/>
                    </g>
                    <g transform="matrix(6.12323e-17,-1,1,5.72119e-18,13,11)">
                        <path d="M0,-2L0,-3L-1,-3L-1,-1L3,-1L3,1L4,1L4,-2L0,-2Z" style="fill:rgb(200,200,200);"/>
                    </g>
                </g>
            </g>
        </g>
    </g>
</svg>
