<?xml version="1.0" encoding="UTF-8" standalone="no"?>
<!DOCTYPE svg PUBLIC "-//W3C//DTD SVG 1.1//EN" "http://www.w3.org/Graphics/SVG/1.1/DTD/svg11.dtd">
<svg width="100%" height="100%" viewBox="0 0 15 15" version="1.1" xmlns="http://www.w3.org/2000/svg" xmlns:xlink="http://www.w3.org/1999/xlink" xml:space="preserve" xmlns:serif="http://www.serif.com/" style="fill-rule:evenodd;clip-rule:evenodd;stroke-linejoin:round;stroke-miterlimit:1.41421;">
    <g transform="matrix(1,0,0,1,-100,-125)">
        <g transform="matrix(1,0,0,1,100,125.067)">
            <g id="ObjectIcons_LayerContainer_nor">
                <g id="Icons">
                    <g transform="matrix(1,0,0,1,-40,-25.0671)">
                        <g id="Base-Block" serif:id="Base Block">
                            <path d="M55,27.1C55,25.941 54.059,25 52.9,25L42.1,25C40.941,25 40,25.941 40,27.1L40,37.9C40,39.059 40.941,40 42.1,40L52.9,40C54.059,40 55,39.059 55,37.9L55,27.1Z" style="fill-opacity:0;"/>
                        </g>
                    </g>
                    <g transform="matrix(1,0,0,1,-1.06581e-12,-0.0671476)">
                        <path d="M4,13L1,13L1,10L3.923,10C4.091,9.986 4.375,9.584 4.71,9L1.08,9C0.484,9 0,8.516 0,7.92L0,7.08C0,6.487 0.478,6.006 1.08,6L4.751,6C4.405,5.406 4.092,5 3.845,5L1,5L1,2L4,2C5.499,2 6.612,2.914 7.5,4.101C8.386,2.917 9.497,2.003 11,2L14,2L14,5L11.155,5C10.903,5.012 10.591,5.415 10.249,6L13.92,6C14.522,6.006 15,6.488 15,7.08L15,7.92C15,8.516 14.516,9 13.92,9L10.289,9C10.617,9.572 10.897,9.969 11.077,10L14,10L14,13L11,13C9.471,13 8.371,12.087 7.5,10.906C6.631,12.085 5.534,12.996 4,13ZM4,12C5.243,11.995 6.143,11.153 6.91,10.017L6.512,9.337L6.107,8.585C5.458,9.83 4.751,10.999 4,11L2,11L2,12L4,12ZM11,11C9.964,10.999 9.011,8.774 8.171,7.183C7.086,5.126 5.964,3 4,3L2,3L2,4L4,4C5.036,4 5.989,6.226 6.829,7.817C7.914,9.874 9.036,12 11,12L13,12L13,11L11,11ZM5.263,8L5.539,7.479L5.292,7L1,7L1,8L5.263,8ZM14,8L14,7L9.708,7L9.461,7.479L9.737,8L14,8ZM11,4L13,4L13,3L11,3C9.764,3 8.862,3.841 8.092,4.98L8.493,5.656L8.899,6.404C9.545,5.166 10.248,4.011 11,4Z" style="fill:rgb(34,34,34);"/>
                    </g>
                    <g transform="matrix(1,0,0,1,-1.08002e-12,-0.0671476)">
                        <path d="M5.539,7.479L5.263,8L1,8L1,7L5.292,7L5.539,7.479ZM14,8L9.737,8L9.461,7.479L9.708,7L14,7L14,8Z" style="fill:rgb(200,200,200);"/>
                    </g>
                    <g transform="matrix(1,0,0,1,-2.84217e-14,-0.0671476)">
                        <path d="M6.512,9.337L6.91,10.017C6.143,11.153 5.242,11.996 4,12L2,12L2,11L4,11C4.751,11 5.458,9.831 6.107,8.585L6.512,9.337ZM13,4L11,4C10.249,4.011 9.545,5.166 8.899,6.404L8.493,5.656L8.092,4.98C8.862,3.841 9.765,3 11,3L13,3L13,4Z" style="fill:rgb(226,226,226);"/>
                    </g>
                    <g transform="matrix(1,0,0,0.947368,13,2.93285)">
                        <path d="M0,9.5L-2,9.5C-3.964,9.5 -5.086,7.256 -6.171,5.085C-7.011,3.405 -7.964,1.056 -9,1.056L-11,1.056L-11,0L-9,0C-7.036,0 -5.914,2.244 -4.829,4.415C-3.989,6.095 -3.036,8.444 -2,8.444L0,8.444L0,9.5Z" style="fill:rgb(226,226,226);"/>
                    </g>
                </g>
            </g>
        </g>
    </g>
</svg>
