<?xml version="1.0" encoding="UTF-8" standalone="no"?>
<!DOCTYPE svg PUBLIC "-//W3C//DTD SVG 1.1//EN" "http://www.w3.org/Graphics/SVG/1.1/DTD/svg11.dtd">
<svg width="100%" height="100%" viewBox="0 0 15 15" version="1.1" xmlns="http://www.w3.org/2000/svg" xmlns:xlink="http://www.w3.org/1999/xlink" xml:space="preserve" xmlns:serif="http://www.serif.com/" style="fill-rule:evenodd;clip-rule:evenodd;stroke-linejoin:round;stroke-miterlimit:1.41421;">
    <g transform="matrix(1,0,0,1,-20,-125)">
        <g transform="matrix(6.12323e-17,1,-1,6.12323e-17,35,125)">
            <g id="ObjectIcons_ActorMixer_nor">
                <g id="Icons">
                    <g transform="matrix(6.12323e-17,-1,1,6.12323e-17,-25,55)">
                        <g id="Base-Block" serif:id="Base Block">
                            <path d="M55,27.1C55,25.941 54.059,25 52.9,25L42.1,25C40.941,25 40,25.941 40,27.1L40,37.9C40,39.059 40.941,40 42.1,40L52.9,40C54.059,40 55,39.059 55,37.9L55,27.1Z" style="fill-opacity:0;"/>
                        </g>
                    </g>
                    <path d="M3.92,15L3.08,15C2.484,15 2,14.516 2,13.92L2,8.931C1.42,8.745 1,8.201 1,7.56L1,6.44C1,5.799 1.42,5.255 2,5.069L2,1.08C2,0.485 2.483,0.001 3.08,0L3.92,0C4.517,0.001 5,0.485 5,1.08L5,5.069C5.579,5.255 5.999,5.797 6,6.44L6,1.08C6,0.485 6.483,0.001 7.08,0L7.92,0C8.517,0.001 9,0.485 9,1.08L9,8.069C9.58,8.255 10,8.799 10,9.44L10,10.56C10,11.201 9.58,11.745 9,11.931L9,13.92C9,14.515 8.517,14.999 7.92,15L7.08,15C6.484,15 6,14.516 6,13.92L6,11.931C5.421,11.745 5.001,11.203 5,10.56L5,13.92C5,14.514 4.519,14.997 3.92,15ZM11.92,15L11.08,15C10.484,15 10,14.516 10,13.92L10,6.931C9.42,6.745 9,6.201 9,5.56L9,4.44C9,3.799 9.42,3.255 10,3.069L10,1.08C10,0.485 10.483,0.001 11.08,0L11.92,0C12.517,0.001 13,0.485 13,1.08L13,3.069C13.58,3.255 14,3.799 14,4.44L14,5.56C14,6.201 13.58,6.745 13,6.931L13,13.92C13,14.515 12.517,14.999 11.92,15ZM12,4L12,1L11,1L11,4L10,4L10,6L11,6L11,14L12,14L12,6L13,6L13,4L12,4ZM4,6L4,1L3,1L3,6L2,6L2,8L3,8L3,14L4,14L4,8L5,8L5,6L4,6ZM8,9L8,1L7,1L7,9L6,9L6,11L7,11L7,14L8,14L8,11L9,11L9,9L8,9ZM5.109,8.891L5,8.931L5,9.44C5,9.245 5.039,9.06 5.109,8.891ZM6,7.56C6,7.755 5.961,7.94 5.891,8.109L6,8.069L6,7.56Z" style="fill:rgb(34,34,34);"/>
                    <g transform="matrix(-1,-1.8963e-33,-1.54074e-33,0.153846,23,0.846154)">
                        <rect x="11" y="1" width="1" height="13" style="fill:rgb(145,145,145);"/>
                    </g>
                    <g transform="matrix(-1,0,-3.43704e-33,0.538462,23,6.46154)">
                        <rect x="11" y="1" width="1" height="13" style="fill:rgb(145,145,145);"/>
                    </g>
                    <g transform="matrix(-1,-0,-0,1,7,-1)">
                        <rect x="2" y="7" width="3" height="2" style="fill:rgb(226,226,226);"/>
                    </g>
                    <g transform="matrix(-1,-0,-0,1,15,5)">
                        <rect x="6" y="4" width="3" height="2" style="fill:rgb(226,226,226);"/>
                    </g>
                    <g transform="matrix(-1.02054e-17,0.166667,1,6.12323e-17,4,2.33333)">
                        <rect x="4" y="7" width="6" height="1" style="fill:rgb(67,67,67);"/>
                    </g>
                    <g transform="matrix(-1.02054e-17,0.166667,1,6.12323e-17,4,5.33333)">
                        <rect x="4" y="7" width="6" height="1" style="fill:rgb(67,67,67);"/>
                    </g>
                    <g transform="matrix(-1,0,-3.43704e-33,0.538462,19,0.461538)">
                        <rect x="11" y="1" width="1" height="13" style="fill:rgb(145,145,145);"/>
                    </g>
                    <g transform="matrix(-1,-3.08149e-33,-6.16298e-33,0.153846,19,11.8462)">
                        <rect x="11" y="1" width="1" height="13" style="fill:rgb(145,145,145);"/>
                    </g>
                    <g transform="matrix(-1.02054e-17,0.166667,1,6.12323e-17,-1.03029e-13,7.33333)">
                        <rect x="4" y="7" width="6" height="1" style="fill:rgb(67,67,67);"/>
                    </g>
                    <g transform="matrix(-1.02054e-17,0.166667,1,6.12323e-17,-1.03029e-13,10.3333)">
                        <rect x="4" y="7" width="6" height="1" style="fill:rgb(67,67,67);"/>
                    </g>
                    <g transform="matrix(-1,2.46519e-32,-3.43704e-33,0.307692,15,0.692308)">
                        <rect x="11" y="1" width="1" height="13" style="fill:rgb(145,145,145);"/>
                    </g>
                    <g transform="matrix(-1,0,-6.16298e-33,0.384615,15,8.61538)">
                        <rect x="11" y="1" width="1" height="13" style="fill:rgb(145,145,145);"/>
                    </g>
                    <g transform="matrix(-1.02054e-17,0.166667,1,6.12323e-17,-4,4.33333)">
                        <rect x="4" y="7" width="6" height="1" style="fill:rgb(67,67,67);"/>
                    </g>
                    <g transform="matrix(-1.02054e-17,0.166667,1,6.12323e-17,-4,7.33333)">
                        <rect x="4" y="7" width="6" height="1" style="fill:rgb(67,67,67);"/>
                    </g>
                    <g transform="matrix(-1,-0,-0,1,23,-5)">
                        <rect x="10" y="9" width="3" height="2" style="fill:rgb(226,226,226);"/>
                    </g>
                </g>
            </g>
        </g>
    </g>
</svg>
