<?xml version="1.0" encoding="UTF-8" standalone="no"?>
<!DOCTYPE svg PUBLIC "-//W3C//DTD SVG 1.1//EN" "http://www.w3.org/Graphics/SVG/1.1/DTD/svg11.dtd">
<svg width="100%" height="100%" viewBox="0 0 15 15" version="1.1" xmlns="http://www.w3.org/2000/svg" xmlns:xlink="http://www.w3.org/1999/xlink" xml:space="preserve" xmlns:serif="http://www.serif.com/" style="fill-rule:evenodd;clip-rule:evenodd;stroke-linejoin:round;stroke-miterlimit:1.41421;">
    <g transform="matrix(1,0,0,1,-40,-125)">
        <g transform="matrix(1,0,0,1,40,125)">
            <g id="ObjectIcons_SoundFX_nor">
                <g id="Icons">
                    <g transform="matrix(1,0,0,1,-40,-25)">
                        <g id="Base-Block" serif:id="Base Block">
                            <path d="M55,27.1C55,25.941 54.059,25 52.9,25L42.1,25C40.941,25 40,25.941 40,27.1L40,37.9C40,39.059 40.941,40 42.1,40L52.9,40C54.059,40 55,39.059 55,37.9L55,27.1Z" style="fill-opacity:0;"/>
                        </g>
                    </g>
                    <path d="M7.575,5.388L11.36,0.977L12.982,0.995C13.602,1.154 13.908,1.512 14,2.005L14,4.752L9.704,7.592L9.732,7.624L12.938,5.822C13.573,5.546 13.947,5.642 14.005,6.189L14.025,9.757L11.486,10.398C12.192,12.004 12.212,13.436 11.286,14.366C10.224,15.432 8.107,15.121 5.853,13.677L4.712,14.809C4.283,15.235 2.497,14.98 1.235,13.728C-0.025,12.476 -0.223,10.643 0.204,10.218L1.313,9.116C-0.121,6.859 -0.435,4.739 0.643,3.656C1.425,2.871 2.901,2.752 4.673,3.51L5.102,1.477C5.083,1.149 5.272,0.99 5.673,1L8.636,1C9.021,1.211 9.125,1.551 9,2L7.432,5.267L7.518,5.338L7.575,5.388ZM13.011,4.174L8.322,7.367C8.77,7.843 9.171,8.329 9.519,8.812L13.011,6.992L13.011,8.992L10.115,9.719C11.119,11.418 11.392,12.952 10.672,13.672C9.577,14.767 6.597,13.564 4.016,10.983C1.437,8.403 0.233,5.424 1.328,4.328C2.06,3.596 3.632,3.891 5.364,4.936L6.011,2L8,2L6.265,5.537C6.744,5.888 7.227,6.29 7.698,6.738L11.864,2L13.011,2L13.011,4.174ZM1.78,9.958C1.911,10.613 2.262,11.387 2.891,12.009C3.559,12.669 4.382,13.036 5.052,13.16L4.291,13.911C4.081,14.119 4.109,14.096 3.585,14.033C3.061,13.969 2.366,13.69 1.812,13.144C1.202,12.54 0.941,11.746 0.932,11.205C0.925,10.823 0.881,10.847 1.077,10.653L1.78,9.958ZM6.159,8.896C7.124,9.861 7.628,10.897 7.286,11.209C6.942,11.521 5.884,10.992 4.917,10.027C3.952,9.061 3.449,8.026 3.791,7.714C4.134,7.402 5.193,7.931 6.159,8.896Z" style="fill:rgb(34,34,34);"/>
                    <path d="M1.78,9.958C1.911,10.613 2.262,11.387 2.891,12.009C3.559,12.669 4.382,13.036 5.052,13.16L4.291,13.911C4.081,14.119 4.109,14.096 3.585,14.033C3.061,13.969 2.366,13.69 1.812,13.144C1.202,12.54 0.941,11.746 0.932,11.205C0.925,10.823 0.881,10.847 1.077,10.653L1.78,9.958Z" style="fill:rgb(200,200,200);"/>
                    <path d="M13.011,4.174L8.322,7.367C8.77,7.843 9.171,8.329 9.519,8.812L13.011,6.992L13.011,8.992L10.115,9.719C11.119,11.418 11.392,12.952 10.672,13.672C9.577,14.767 6.597,13.564 4.016,10.983C1.437,8.403 0.233,5.424 1.328,4.328C2.06,3.596 3.632,3.891 5.364,4.936L6.011,2L8,2L6.265,5.537C6.744,5.888 7.227,6.29 7.698,6.738L11.864,2L13.011,2L13.011,4.174ZM6.159,8.896C7.124,9.861 7.628,10.897 7.286,11.209C6.942,11.521 5.884,10.992 4.917,10.027C3.952,9.061 3.449,8.026 3.791,7.714C4.134,7.402 5.193,7.931 6.159,8.896Z" style="fill:rgb(200,200,200);"/>
                </g>
            </g>
        </g>
    </g>
</svg>
