<?xml version="1.0" encoding="UTF-8" standalone="no"?><!DOCTYPE svg PUBLIC "-//W3C//DTD SVG 1.1//EN" "http://www.w3.org/Graphics/SVG/1.1/DTD/svg11.dtd"><svg width="100%" height="100%" viewBox="0 0 15 15" version="1.1" xmlns="http://www.w3.org/2000/svg" xmlns:xlink="http://www.w3.org/1999/xlink" xml:space="preserve" xmlns:serif="http://www.serif.com/" style="fill-rule:evenodd;clip-rule:evenodd;stroke-miterlimit:1;"><g id="ObjectIcons_AudioObjectSound_nor"><path id="Base-Block" serif:id="Base Block" d="M15,2.1c0,-1.159 -0.941,-2.1 -2.1,-2.1l-10.8,0c-1.159,0 -2.1,0.941 -2.1,2.1l0,10.8c0,1.159 0.941,2.1 2.1,2.1l10.8,0c1.159,0 2.1,-0.941 2.1,-2.1l0,-10.8Z" style="fill-opacity:0;"/><g id="Disc"><circle cx="7.5" cy="7.5" r="7.5" style="fill:#222;"/><circle cx="7.5" cy="7.5" r="6.5" style="fill:#c8c8c8;"/></g><g id="Speaker"><path d="M4.398,6.002l3.602,-2.523l0,8.155l-3.602,-2.632l-1.398,0l0,-3l1.398,0Z" style="fill:#222;"/><path d="M9.507,3.549c2.679,2.48 2.892,5.125 0,7.979" style="fill:none;stroke:#222;stroke-width:1px;"/><path d="M9,5.771c0.946,1.098 1.021,2.271 0,3.535" style="fill:none;stroke:#222;stroke-width:1px;"/></g></g></svg>