<?xml version="1.0" encoding="UTF-8" standalone="no"?>
<!DOCTYPE svg PUBLIC "-//W3C//DTD SVG 1.1//EN" "http://www.w3.org/Graphics/SVG/1.1/DTD/svg11.dtd">
<svg width="100%" height="100%" viewBox="0 0 63 63" version="1.1" xmlns="http://www.w3.org/2000/svg" xmlns:xlink="http://www.w3.org/1999/xlink" xml:space="preserve" xmlns:serif="http://www.serif.com/" style="fill-rule:evenodd;clip-rule:evenodd;stroke-linejoin:round;stroke-miterlimit:2;">
    <g transform="matrix(4.16667,0,0,4.16667,33.4512,21.4817)">
        <path d="M0,4.693C0.533,4.693 1.061,4.916 1.468,5.316L1.585,5.434C2.084,5.926 2.286,6.606 2.189,7.249C2.13,7.924 2.357,8.628 2.877,9.147C3.808,10.078 5.312,10.076 6.24,9.148L6.269,9.12C7.198,8.19 7.2,6.685 6.271,5.755C5.75,5.235 5.048,5.008 4.37,5.067C3.729,5.162 3.057,4.955 2.557,4.463L2.438,4.345C2.031,3.944 1.711,3.381 1.815,2.878C1.856,2.701 1.878,2.52 1.878,2.339C1.883,1.724 1.65,1.107 1.18,0.637L1.151,0.608C0.528,-0.015 -0.354,-0.219 -1.148,-0.005C-1.65,0.083 -2.144,-0.244 -2.532,-0.626L-2.65,-0.744C-3.146,-1.232 -3.345,-1.913 -3.253,-2.557C-3.191,-3.23 -3.42,-3.935 -3.938,-4.453C-4.87,-5.385 -6.373,-5.382 -7.303,-4.453L-7.332,-4.423C-8.259,-3.495 -8.262,-1.993 -7.33,-1.061C-6.812,-0.543 -6.107,-0.313 -5.435,-0.375C-4.789,-0.469 -4.117,-0.261 -3.622,0.228L-3.504,0.346C-3.091,0.753 -2.878,1.286 -2.878,1.822L-2.876,2.875C-2.876,3.399 -3.104,3.917 -3.5,4.317L-3.618,4.435C-4.109,4.935 -4.789,5.135 -5.432,5.039C-6.108,4.98 -6.811,5.208 -7.33,5.728C-8.261,6.659 -8.259,8.163 -7.33,9.09L-7.303,9.12C-6.373,10.048 -4.867,10.05 -3.938,9.121C-3.418,8.601 -3.191,7.897 -3.251,7.22C-3.345,6.58 -3.138,5.907 -2.647,5.407L-2.528,5.29C-2.15,4.907 -1.658,4.67 -1.156,4.67L0,4.693Z" style="fill:white;fill-rule:nonzero;"/>
    </g>
    <g transform="matrix(-2.94671,2.94584,2.94584,2.94671,62.5001,9.99981)">
        <path d="M1.697,-4.096C0.372,-4.096 -0.703,-3.021 -0.703,-1.697C-0.703,-0.372 0.372,0.703 1.697,0.703C3.021,0.704 4.096,-0.371 4.096,-1.695C4.097,-3.021 3.022,-4.096 1.697,-4.096" style="fill:white;fill-rule:nonzero;"/>
    </g>
</svg>
